<svg xmlns="http://www.w3.org/2000/svg" version="1.1" xmlns:xlink="http://www.w3.org/1999/xlink" xmlns:svgjs="http://svgjs.dev/svgjs" width="2000" height="2000" viewBox="0 0 2000 2000"><g transform="matrix(1,0,0,1,-0.28443113772425477,-0.28443113772459583)"><svg viewBox="0 0 334 334" data-background-color="#ececea" preserveAspectRatio="xMidYMid meet" height="2000" width="2000" xmlns="http://www.w3.org/2000/svg" xmlns:xlink="http://www.w3.org/1999/xlink"><g id="tight-bounds" transform="matrix(1,0,0,1,0.04749999999998522,0.04750000000001364)"><svg viewBox="0 0 333.90454557049503 333.90454557049503" height="333.90454557049503" width="333.90454557049503"><g><svg></svg></g><g><svg viewBox="0 0 333.90454557049503 333.90454557049503" height="333.90454557049503" width="333.90454557049503"><g><path d="M0 166.952c0-92.205 74.747-166.952 166.952-166.952 92.205 0 166.952 74.747 166.953 166.952 0 92.205-74.747 166.952-166.953 166.953-92.205 0-166.952-74.747-166.952-166.953zM166.952 316.63c82.665 0 149.677-67.013 149.678-149.678 0-82.665-67.013-149.677-149.678-149.677-82.665 0-149.677 67.013-149.677 149.677 0 82.665 67.013 149.677 149.677 149.678z" data-fill-palette-color="tertiary" fill="#ce4d63" stroke="transparent"></path><ellipse rx="160.27418187383762" ry="160.27418187383762" cx="166.95227278524752" cy="166.95227278524752" fill="#ce4d63" stroke="transparent" stroke-width="0" fill-opacity="1" data-fill-palette-color="tertiary"></ellipse></g><g transform="matrix(1,0,0,1,72.04245508192838,71.17305217166896)"><svg viewBox="0 0 189.81963540663827 191.55844122715712" height="191.55844122715712" width="189.81963540663827"><g><svg viewBox="0 0 189.81963540663827 191.55844122715712" height="191.55844122715712" width="189.81963540663827"><g><svg viewBox="0 0 189.81963540663827 191.55844122715712" height="191.55844122715712" width="189.81963540663827"><g><svg viewBox="0 0 189.81963540663827 191.55844122715712" height="191.55844122715712" width="189.81963540663827"><g id="textblocktransform"><svg viewBox="0 0 189.81963540663827 191.55844122715712" height="191.55844122715712" width="189.81963540663827" id="textblock"><g><svg viewBox="0 0 189.81963540663827 191.55844122715712" height="191.55844122715712" width="189.81963540663827"><g transform="matrix(1,0,0,1,0,0)"><svg width="189.81963540663827" viewBox="0.2 -33.05 32.75 33.05" height="191.55844122715712" data-palette-color="#ececea"><path d="M12.9 0L0.2 0 0.4-1.05 1.1-1.3Q3.1-2.05 3.45-4L3.45-4 6-17.55Q6.5-20.2 7.03-23.23 7.55-26.25 8.05-29.05L8.05-29.05Q8.35-31.05 6.5-31.75L6.5-31.75 5.9-32 6.15-33.05 17.6-33.05Q22.6-33.05 26.03-31.28 29.45-29.5 31.2-26.35 32.95-23.2 32.95-19.15L32.95-19.15Q32.95-14.6 31.35-11.05 29.75-7.5 26.98-5.03 24.2-2.55 20.58-1.28 16.95 0 12.9 0L12.9 0ZM9.55-1.45L9.55-1.45 12.5-1.45Q16.8-1.45 19.83-3.88 22.85-6.3 24.45-10.4 26.05-14.5 26.05-19.55L26.05-19.55Q26.05-25.5 23.65-28.45 21.25-31.4 16.7-31.6L16.7-31.6 15.1-31.6 12.05-15.5Q11.4-12 10.75-8.5 10.1-5 9.55-1.45Z" opacity="1" transform="matrix(1,0,0,1,0,0)" fill="#ececea" class="wordmark-text-0" data-fill-palette-color="quaternary" id="text-0"></path></svg></g></svg></g></svg></g></svg></g><g></g></svg></g></svg></g></svg></g></svg></g><defs></defs></svg><rect width="333.90454557049503" height="333.90454557049503" fill="none" stroke="none" visibility="hidden"></rect></g></svg></g></svg>